<?xml version="1.0" encoding="UTF-8" standalone="no"?>
<!-- Created with Inkscape (http://www.inkscape.org/) -->

<svg
   xmlns:dc="http://purl.org/dc/elements/1.1/"
   xmlns:cc="http://creativecommons.org/ns#"
   xmlns:rdf="http://www.w3.org/1999/02/22-rdf-syntax-ns#"
   xmlns:svg="http://www.w3.org/2000/svg"
   xmlns="http://www.w3.org/2000/svg"
   xmlns:sodipodi="http://sodipodi.sourceforge.net/DTD/sodipodi-0.dtd"
   xmlns:inkscape="http://www.inkscape.org/namespaces/inkscape"
   id="svg3317"
   version="1.1"
   inkscape:version="0.48.5 r10040"
   width="16"
   height="16"
   sodipodi:docname="powerbi_logo_16x16.png"
   inkscape:export-filename="C:\Sources\vsts-open-in-powerbi\vNext\static\images\powerbi_logo1_16x16.png"
   inkscape:export-xdpi="128.35001"
   inkscape:export-ydpi="128.35001">
  <metadata
     id="metadata3323">
    <rdf:RDF>
      <cc:Work
         rdf:about="">
        <dc:format>image/svg+xml</dc:format>
        <dc:type
           rdf:resource="http://purl.org/dc/dcmitype/StillImage" />
        <dc:title></dc:title>
      </cc:Work>
    </rdf:RDF>
  </metadata>
  <defs
     id="defs3321" />
  <sodipodi:namedview
     pagecolor="#ffffff"
     bordercolor="#666666"
     borderopacity="1"
     objecttolerance="10"
     gridtolerance="10"
     guidetolerance="10"
     inkscape:pageopacity="0"
     inkscape:pageshadow="2"
     inkscape:window-width="2048"
     inkscape:window-height="1089"
     id="namedview3319"
     showgrid="false"
     inkscape:zoom="14.75"
     inkscape:cx="8"
     inkscape:cy="-8.2711864"
     inkscape:window-x="-8"
     inkscape:window-y="-8"
     inkscape:window-maximized="1"
     inkscape:current-layer="g3237" />
  <rect
     style="fill:#edbd11;fill-opacity:1;stroke:none"
     id="rect3259"
     width="16"
     height="16"
     x="0"
     y="0" />
  <g
     transform="matrix(0.20167376,0,0,0.19888108,4.1905075,-2.56231)"
     id="g3237">
    <g
       id="g3460"
       transform="translate(-12.774449,23.521423)">
      <path
         style="fill:#020202"
         inkscape:connector-curvature="0"
         id="path3021"
         d="m 55,48 v -3 h 1.45 C 59.2,45 61,42.75 61,40 V 13.64 A 4.35,4.35 0 0 0 56.45,9 H 7.55 A 4.35,4.35 0 0 0 3,13.64 V 40 c 0,2.75 1.8,5 4.55,5 H 9 v 3 H 7.55 C 3.38,48 0,44.18 0,40 V 13.64 A 7.64,7.64 0 0 1 7.55,6 h 48.9 A 7.64,7.64 0 0 1 64,13.64 V 40 c 0,4.17 -3.38,8 -7.55,8 z"
         class="cls-1" />
      <path
         style="fill:#020202"
         inkscape:connector-curvature="0"
         id="path3023"
         d="M 15.5,54.46 A 3.61,3.61 0 0 1 12,50.74 v -8.56 a 3.61,3.61 0 0 1 3.5,-3.72 h 0 a 3.61,3.61 0 0 1 3.5,3.71 v 8.57"
         class="cls-1" />
      <path
         style="fill:#020202"
         inkscape:connector-curvature="0"
         id="path3025"
         d="M 26.5,54.13 A 3.52,3.52 0 0 1 23,50.6 V 29.67 a 3.5,3.5 0 1 1 7,0 V 50.6"
         class="cls-1" />
      <path
         style="fill:#020202"
         inkscape:connector-curvature="0"
         id="path3027"
         d="M 48.53,54.21 A 3.53,3.53 0 0 1 45,50.65 V 20.78 a 3.5,3.5 0 1 1 7,0 v 29.87"
         class="cls-1" />
      <path
         style="fill:#020202"
         inkscape:connector-curvature="0"
         id="path3029"
         d="M 37.51,54.3 A 3.55,3.55 0 0 1 34,50.7 V 34.89 a 3.5,3.5 0 1 1 7,0 V 50.7"
         class="cls-1" />
      <path
         style="fill:#020202"
         inkscape:connector-curvature="0"
         id="path3023-4"
         d="m 15.508557,38.538057 a 3.61,3.61 0 0 0 -3.5,3.72 v 8.56 a 3.61,3.61 0 0 0 3.5,3.72 h 0 a 3.61,3.61 0 0 0 3.5,-3.71 v -8.57"
         class="cls-1" />
      <path
         style="fill:#020202"
         inkscape:connector-curvature="0"
         id="path3023-4-5"
         d="m 26.498675,38.130572 a 3.61,3.61 0 0 0 -3.5,3.72 v 8.56 a 3.61,3.61 0 0 0 3.5,3.72 h 0 a 3.61,3.61 0 0 0 3.5,-3.71 v -8.57"
         class="cls-1" />
      <path
         style="fill:#020202"
         inkscape:connector-curvature="0"
         id="path3023-4-1"
         d="m 37.524746,38.3463 a 3.61,3.61 0 0 0 -3.5,3.72 v 8.56 a 3.61,3.61 0 0 0 3.5,3.72 h 0 a 3.61,3.61 0 0 0 3.5,-3.71 v -8.57"
         class="cls-1" />
      <path
         style="fill:#020202"
         inkscape:connector-curvature="0"
         id="path3023-4-7"
         d="m 48.509371,38.227475 a 3.61,3.61 0 0 0 -3.5,3.72 v 8.56 a 3.61,3.61 0 0 0 3.5,3.72 h 0 a 3.61,3.61 0 0 0 3.5,-3.71 v -8.57"
         class="cls-1" />
    </g>
  </g>
</svg>
